<svg width="100" height="100" viewBox="0 0 100 100" fill="none" xmlns="http://www.w3.org/2000/svg">
<path d="M60.4167 56.25H68.75V43.75H60.4167V56.25ZM75 58.3333C75 59.4384 74.561 60.4982 73.7796 61.2796C72.9982 62.061 71.9384 62.5 70.8333 62.5H67.7083V68.75H61.4583V62.5H58.3333C57.2283 62.5 56.1685 62.061 55.3871 61.2796C54.6057 60.4982 54.1667 59.4384 54.1667 58.3333V41.6666C54.1667 40.5616 54.6057 39.5017 55.3871 38.7203C56.1685 37.9389 57.2283 37.5 58.3333 37.5H70.8333C71.9384 37.5 72.9982 37.9389 73.7796 38.7203C74.561 39.5017 75 40.5616 75 41.6666V58.3333ZM45.8333 62.5H39.5833V54.1666H31.25V62.5H25V37.5H31.25V47.9166H39.5833V37.5H45.8333V62.5ZM79.1667 16.6666H20.8333C16.2083 16.6666 12.5 20.375 12.5 25V75C12.5 77.2101 13.378 79.3297 14.9408 80.8925C16.5036 82.4553 18.6232 83.3333 20.8333 83.3333H79.1667C81.3768 83.3333 83.4964 82.4553 85.0592 80.8925C86.622 79.3297 87.5 77.2101 87.5 75V25C87.5 22.7898 86.622 20.6702 85.0592 19.1074C83.4964 17.5446 81.3768 16.6666 79.1667 16.6666Z" fill="#AC0026"/>
</svg>
