<svg width="246" height="40" viewBox="0 0 246 40" fill="none" xmlns="http://www.w3.org/2000/svg">
<path d="M0.528409 31H6.67898V22.733L9.70455 19.0398L17.6733 31H25.0312L14.108 14.9347L24.9034 1.90909H17.5312L7.0625 14.7358H6.67898V1.90909H0.528409V31ZM36.8345 31.4261C42.2322 31.4261 45.8686 28.7983 46.7209 24.75L41.1243 24.3807C40.5135 26.0426 38.951 26.9091 36.9339 26.9091C33.9084 26.9091 31.9908 24.9062 31.9908 21.6534V21.6392H46.8487V19.9773C46.8487 12.5625 42.3601 8.89773 36.593 8.89773C30.1726 8.89773 26.0107 13.4574 26.0107 20.1903C26.0107 27.108 30.1158 31.4261 36.8345 31.4261ZM31.9908 17.8892C32.1186 15.4034 34.0078 13.4148 36.6925 13.4148C39.3203 13.4148 41.1385 15.2898 41.1527 17.8892H31.9908ZM57.3487 1.90909H51.2976V31H57.3487V1.90909ZM68.9176 31.4119C72.142 31.4119 74.2301 30.0057 75.2955 27.9744H75.4659V31H81.2045V16.2841C81.2045 11.0852 76.8011 8.89773 71.9432 8.89773C66.7159 8.89773 63.2784 11.3977 62.4403 15.375L68.0369 15.8295C68.4489 14.3807 69.7415 13.3153 71.9148 13.3153C73.9744 13.3153 75.1534 14.3523 75.1534 16.142V16.2273C75.1534 17.6335 73.6619 17.8182 69.8693 18.1875C65.5511 18.5852 61.6733 20.0341 61.6733 24.9062C61.6733 29.2244 64.7557 31.4119 68.9176 31.4119ZM70.6506 27.2358C68.7898 27.2358 67.4545 26.3693 67.4545 24.7074C67.4545 23.0028 68.8608 22.1648 70.9915 21.8665C72.3125 21.6818 74.4716 21.3693 75.196 20.8864V23.2017C75.196 25.4886 73.3068 27.2358 70.6506 27.2358ZM104.553 15.4034C104.013 11.3835 100.774 8.89773 95.2628 8.89773C89.6804 8.89773 86.0014 11.483 86.0156 15.6875C86.0014 18.9545 88.0611 21.071 92.3224 21.9233L96.1009 22.6761C98.0043 23.0597 98.8707 23.7557 98.8991 24.8494C98.8707 26.142 97.4645 27.0653 95.348 27.0653C93.1889 27.0653 91.7543 26.142 91.3849 24.3665L85.4332 24.679C86.0014 28.8551 89.5526 31.4261 95.3338 31.4261C100.987 31.4261 105.036 28.5426 105.05 24.2386C105.036 21.0852 102.976 19.196 98.7429 18.3295L94.794 17.5341C92.7628 17.0938 92.0099 16.3977 92.0241 15.3466C92.0099 14.0398 93.4872 13.1875 95.3622 13.1875C97.4645 13.1875 98.7145 14.3381 99.0128 15.7443L104.553 15.4034Z" fill="#F5F6F8"/>
<path d="M119.786 31C128.65 31 134.019 25.517 134.019 16.4261C134.019 7.36364 128.65 1.90909 119.871 1.90909H109.474V31H119.786ZM115.624 25.7301V7.17898H119.545C124.999 7.17898 127.883 9.96307 127.883 16.4261C127.883 22.9176 124.999 25.7301 119.531 25.7301H115.624ZM138.962 31H145.013V9.18182H138.962V31ZM142.001 6.36932C143.805 6.36932 145.283 4.99148 145.283 3.30114C145.283 1.625 143.805 0.247158 142.001 0.247158C140.212 0.247158 138.734 1.625 138.734 3.30114C138.734 4.99148 140.212 6.36932 142.001 6.36932ZM160.19 39.4943C166.425 39.4943 170.857 36.6534 170.857 31.2131V9.18182H164.849V12.8466H164.621C163.812 11.071 162.036 8.89773 158.386 8.89773C153.599 8.89773 149.55 12.6193 149.55 20.0483C149.55 27.3068 153.485 30.6875 158.4 30.6875C161.88 30.6875 163.826 28.9403 164.621 27.1364H164.877V31.1278C164.877 33.983 162.96 35.1477 160.332 35.1477C157.661 35.1477 156.312 33.983 155.815 32.804L150.218 33.5568C150.942 36.8523 154.309 39.4943 160.19 39.4943ZM160.317 26.142C157.349 26.142 155.729 23.7841 155.729 20.0199C155.729 16.3125 157.32 13.7131 160.317 13.7131C163.258 13.7131 164.906 16.1989 164.906 20.0199C164.906 23.8693 163.229 26.142 160.317 26.142ZM176.173 31H182.224V9.18182H176.173V31ZM179.212 6.36932C181.016 6.36932 182.494 4.99148 182.494 3.30114C182.494 1.625 181.016 0.247158 179.212 0.247158C177.423 0.247158 175.945 1.625 175.945 3.30114C175.945 4.99148 177.423 6.36932 179.212 6.36932ZM199.176 9.18182H195.071V3.95455H189.02V9.18182H186.037V13.7273H189.02V25.0909C188.991 29.3665 191.903 31.483 196.293 31.2983C197.855 31.2415 198.963 30.929 199.574 30.7301L198.622 26.2273C198.324 26.2841 197.685 26.4261 197.116 26.4261C195.909 26.4261 195.071 25.9716 195.071 24.2955V13.7273H199.176V9.18182ZM209.839 31.4119C213.064 31.4119 215.152 30.0057 216.217 27.9744H216.388V31H222.126V16.2841C222.126 11.0852 217.723 8.89773 212.865 8.89773C207.638 8.89773 204.2 11.3977 203.362 15.375L208.959 15.8295C209.371 14.3807 210.663 13.3153 212.837 13.3153C214.896 13.3153 216.075 14.3523 216.075 16.142V16.2273C216.075 17.6335 214.584 17.8182 210.791 18.1875C206.473 18.5852 202.595 20.0341 202.595 24.9062C202.595 29.2244 205.678 31.4119 209.839 31.4119ZM211.572 27.2358C209.712 27.2358 208.376 26.3693 208.376 24.7074C208.376 23.0028 209.783 22.1648 211.913 21.8665C213.234 21.6818 215.393 21.3693 216.118 20.8864V23.2017C216.118 25.4886 214.229 27.2358 211.572 27.2358ZM233.372 1.90909H227.321V31H233.372V1.90909ZM242.256 31.3693C244.075 31.3693 245.651 29.8494 245.665 27.9602C245.651 26.0994 244.075 24.5795 242.256 24.5795C240.381 24.5795 238.833 26.0994 238.847 27.9602C238.833 29.8494 240.381 31.3693 242.256 31.3693Z" fill="#FF2858"/>
</svg>
