<svg width="40" height="40" viewBox="0 0 40 40" fill="none" xmlns="http://www.w3.org/2000/svg">
<g id="search_24px">
<path id="icon/action/search_24px" fill-rule="evenodd" clip-rule="evenodd" d="M25.3112 24.1193H26.6278L33.6945 31.2193C34.3778 31.9026 34.3778 33.0193 33.6945 33.7026C33.0112 34.386 31.8945 34.386 31.2112 33.7026L24.1278 26.6193V25.3026L23.6778 24.836C21.3445 26.836 18.1612 27.8693 14.7778 27.3026C10.1445 26.5193 6.4445 22.6526 5.87783 17.986C5.01117 10.936 10.9445 5.00262 17.9945 5.86929C22.6612 6.43595 26.5278 10.136 27.3112 14.7693C27.8778 18.1526 26.8445 21.336 24.8445 23.6693L25.3112 24.1193ZM9.12764 16.6193C9.12764 20.7693 12.4776 24.1193 16.6276 24.1193C20.7776 24.1193 24.1276 20.7693 24.1276 16.6193C24.1276 12.4693 20.7776 9.11931 16.6276 9.11931C12.4776 9.11931 9.12764 12.4693 9.12764 16.6193Z" fill="white"/>
</g>
</svg>
