<svg width="100" height="100" viewBox="0 0 100 100" fill="none" xmlns="http://www.w3.org/2000/svg">
<path d="M83.3335 16.6667H16.6668C12.0418 16.6667 8.3335 20.3751 8.3335 25.0001V75.0001C8.3335 77.2102 9.21147 79.3298 10.7743 80.8926C12.3371 82.4554 14.4567 83.3334 16.6668 83.3334H83.3335C87.9585 83.3334 91.6668 79.6251 91.6668 75.0001V25.0001C91.6668 22.7899 90.7889 20.6703 89.2261 19.1075C87.6633 17.5447 85.5436 16.6667 83.3335 16.6667ZM62.5002 41.6667H45.8335V45.8334H58.3335C60.6252 45.8334 62.5002 47.7084 62.5002 50.0001V62.5001C62.5002 64.7917 60.6252 66.6667 58.3335 66.6667H54.1668V70.8334H45.8335V66.6667H37.5002V58.3334H54.1668V54.1667H41.6668C39.3752 54.1667 37.5002 52.2917 37.5002 50.0001V37.5001C37.5002 35.2084 39.3752 33.3334 41.6668 33.3334H45.8335V29.1667H54.1668V33.3334H62.5002V41.6667Z" fill="#AC0026"/>
</svg>
